<svg fill="none" height="40" viewBox="0 0 40 40" width="40" xmlns="http://www.w3.org/2000/svg">
    <rect fill="#333333" height="40" rx="10" width="40" />
    <g clip-path="url(#clip0)">
        <path
            d="M15.1148 18.721C15.2061 18.63 15.3052 18.5532 15.4095 18.4863L22.3857 11.5105C23.0663 10.8302 24.1705 10.8299 24.8513 11.5108C25.5322 12.1913 25.5322 13.2952 24.8513 13.9764L18.8434 19.9844L24.8823 26.0236C25.5632 26.7042 25.5632 27.8077 24.8823 28.4893C24.5417 28.8302 24.0952 29 23.6497 29C23.2042 29 22.7573 28.8302 22.417 28.4893L15.4095 21.4811C15.3052 21.4143 15.2055 21.3374 15.1148 21.2464C14.7667 20.8984 14.5988 20.4399 14.6072 19.9837C14.5988 19.5275 14.7667 19.0694 15.1148 18.721Z"
            fill="#FC8686" />
    </g>
    <defs>
        <clipPath id="clip0">
            <rect fill="white" height="18" transform="translate(11 11)" width="18" />
        </clipPath>
    </defs>
</svg>
